<svg width="60" height="60" viewBox="0 0 60 60" fill="none" xmlns="http://www.w3.org/2000/svg">
<circle cx="30" cy="30" r="30" fill="#130160"/>
<path fill-rule="evenodd" clip-rule="evenodd" d="M15.8823 29.8529C15.8789 29.5117 15.9769 29.1835 16.1548 28.9404C16.3328 28.6973 16.576 28.5593 16.8312 28.5567L39.518 28.3262L33.3817 20.2937C33.1986 20.054 33.0938 19.7274 33.0903 19.3858C33.0869 19.0442 33.185 18.7155 33.3632 18.4721C33.5413 18.2287 33.7849 18.0906 34.0403 18.088C34.2958 18.0854 34.5421 18.2186 34.7252 18.4583L42.5248 28.6713C42.6155 28.7899 42.6881 28.9311 42.7381 29.0869C42.7882 29.2427 42.8149 29.41 42.8166 29.5792C42.8183 29.7484 42.7951 29.9162 42.7482 30.073C42.7012 30.2298 42.6316 30.3725 42.5433 30.4929L34.9528 40.8623C34.7747 41.1056 34.5311 41.2438 34.2756 41.2464C34.0202 41.249 33.7739 41.1158 33.5908 40.8761C33.4077 40.6364 33.3029 40.3098 33.2995 39.9682C33.296 39.6266 33.3941 39.2979 33.5723 39.0546L39.5441 30.899L16.8573 31.1295C16.6022 31.1321 16.3562 30.9991 16.1733 30.7596C15.9905 30.5202 15.8858 30.1941 15.8823 29.8529Z" fill="white"/>
</svg>
